The.Motorcycle.Diaries.2004.Bluray.1080p.DTS.VC-1-MARSViN
General
Complete name                    : X:\\TMD_MARSViN.1080p.mkv
Format                           : Matroska
File size                        : 16.7 GiB
Duration                         : 2h 5mn
Overall bit rate                 : 19.0 Mbps
Encoded date                     : UTC 2011-04-27 22:44:06
Writing application              : mkvmerge v4.7.0 ('Just Like You Imagined') built on Apr 21 2011 01:13:14
Writing library                  : libebml v1.2.0 + libmatroska v1.1.0

Video
ID                               : 1
Format                           : VC-1
Format profile                   : AP@L3
Codec ID                         : WVC1
Codec ID/Hint                    : Microsoft
Duration                         : 2h 5mn
Bit rate                         : 17.1 Mbps
Width                            : 1 920 pixels
Height                           : 1 080 pixels
Display aspect ratio             : 16:9
Frame rate                       : 23.976 fps
Chroma subsampling               : 4:2:0
Bit depth                        : 8 bits
Scan type                        : Progressive
Bits/(Pixel*Frame)               : 0.344
Stream size                      : 15.0 GiB (90%)

Audio
ID                               : 2
Format                           : DTS
Format/Info                      : Digital Theater Systems
Muxing mode                      : Header stripping
Codec ID                         : A_DTS
Duration                         : 2h 5mn
Bit rate mode                    : Constant
Bit rate                         : 1 510 Kbps
Channel(s)                       : 6 channels
Channel positions                : Front: L C R, Side: L R, LFE
Sampling rate                    : 48.0 KHz
Bit depth                        : 24 bits
Stream size                      : 1.33 GiB (8%)
Title                            : DTS
Language                         : Spanish

Text
ID                               : 3
Format                           : PGS
Muxing mode                      : zlib
Codec ID                         : S_HDMV/PGS
Codec ID/Info                    : The same subtitle format used on BDs/HD-DVDs
Language                         : English


English subs are original Blu-Ray .sup. I use Splash PRO, and playback is impeccable!
MPC works good too, but it will not load the coded subtitle, so I included an .srt as well.

MY VERY FIRST RIP, IT'S ALL TRY AND ERROR RIGHT?

MARSViN 2011
